<?xml version="1.0" encoding="utf-8"?>
<svg xmlns="http://www.w3.org/2000/svg" width="64" height="64" viewBox="0 0 64 64" version="1.1" role="img" aria-labelledby="migdal-favicon-title migdal-favicon-desc">
  <title id="migdal-favicon-title">Migdal favicon</title>
  <desc id="migdal-favicon-desc">A simplified square favicon using the same Migdal-shaped curve, propagation arrow, and electron marker as the project logo.</desc>
  <g transform="matrix(0.0842105263 0 0 0.0842105263 -20.7157895 -16.8421053)" stroke="#2d7cbd" stroke-width="18" stroke-linejoin="round">
    <path d="M 355.00 409.00 C 352.83 412.68, 346.49 424.48, 344.00 430.00 C 341.51 435.52, 334.60 452.52, 332.00 460.00 C 329.40 467.48, 322.71 489.14, 320.00 499.00 C 317.29 508.86, 310.36 535.62, 307.00 551.00 C 303.64 566.38, 293.01 617.49, 289.00 641.00 C 284.99 664.51, 272.06 752.94, 270.00 768.00 C 267.94 783.06, 269.57 778.16, 270.00 780.00 C 270.43 781.84, 272.59 784.46, 274.00 785.00 C 275.41 785.54, 281.70 785.33, 283.00 785.00 C 284.30 784.67, 285.57 783.08, 286.00 782.00 C 286.43 780.92, 286.68 775.98, 287.00 775.00 C 287.32 774.02, 288.02 778.74, 289.00 773.00 C 289.98 767.26, 293.51 736.30, 296.00 722.00 C 298.49 707.70, 308.32 657.25, 312.00 641.00 C 315.68 624.75, 326.43 584.46, 330.00 572.00 C 333.57 559.54, 341.97 534.45, 345.00 526.00 C 348.03 517.55, 354.53 501.15, 358.00 494.00 C 361.47 486.85, 373.53 465.20, 377.00 460.00 C 380.47 454.80, 386.86 448.38, 390.00 446.00 C 393.14 443.62, 402.97 438.87, 406.00 438.00 C 409.03 437.13, 415.29 437.46, 418.00 438.00 C 420.71 438.54, 428.29 441.48, 431.00 443.00 C 433.71 444.52, 440.07 449.29, 443.00 452.00 C 445.93 454.71, 453.02 461.18, 458.00 468.00 C 462.98 474.82, 479.90 498.75, 489.00 515.00 C 498.10 531.25, 533.23 601.75, 542.00 618.00 C 550.77 634.25, 565.45 657.96, 570.00 665.00 C 574.55 672.04, 581.29 679.97, 584.00 683.00 C 586.71 686.03, 592.18 690.94, 595.00 693.00 C 597.82 695.06, 606.97 700.70, 610.00 702.00 C 613.03 703.30, 620.18 704.78, 623.00 705.00 C 625.82 705.22, 633.18 704.65, 636.00 704.00 C 638.82 703.35, 646.51 700.30, 649.00 699.00 C 651.49 697.70, 655.64 695.25, 659.00 692.00 C 662.36 688.75, 675.02 675.83, 680.00 669.00 C 684.98 662.17, 695.47 646.44, 705.00 629.00 C 714.53 611.56, 759.55 523.71, 768.00 508.00 C 776.45 492.29, 779.42 489.09, 783.00 484.00 C 786.58 478.91, 798.08 464.47, 801.00 461.00 C 803.92 457.53, 806.97 454.27, 810.00 452.00 C 813.03 449.73, 826.18 441.52, 829.00 440.00 C 831.82 438.48, 833.94 438.22, 836.00 438.00 C 838.06 437.78, 845.51 437.46, 848.00 438.00 C 850.49 438.54, 856.51 441.27, 859.00 443.00 C 861.49 444.73, 868.40 450.97, 871.00 454.00 C 873.60 457.03, 880.08 465.91, 883.00 471.00 C 885.92 476.09, 895.08 494.39, 898.00 501.00 C 900.92 507.61, 907.18 523.98, 910.00 532.00 C 912.82 540.02, 920.42 562.22, 924.00 575.00 C 927.58 587.78, 939.75 635.92, 943.00 650.00 C 946.25 664.08, 951.51 690.92, 954.00 705.00 C 956.49 719.08, 964.05 771.23, 966.00 780.00 C 967.95 788.77, 970.59 785.46, 972.00 786.00 C 973.41 786.54, 977.92 785.43, 979.00 785.00 C 980.08 784.57, 981.57 783.73, 982.00 782.00 C 982.43 780.27, 984.84 783.52, 983.00 769.00 C 981.16 754.48, 968.68 670.10, 965.00 648.00 C 961.32 625.90, 953.01 582.98, 949.00 565.00 C 944.99 547.02, 931.58 494.78, 928.00 482.00 C 924.42 469.22, 918.71 453.93, 916.00 447.00 C 913.29 440.07, 906.25 423.85, 903.00 418.00 C 899.75 412.15, 888.92 396.79, 886.00 393.00 C 883.08 389.21, 878.27 384.84, 876.00 383.00 C 873.73 381.16, 867.60 377.19, 865.00 376.00 C 862.40 374.81, 854.71 372.43, 852.00 372.00 C 849.29 371.57, 842.60 371.68, 840.00 372.00 C 837.40 372.32, 830.38 374.13, 828.00 375.00 C 825.62 375.87, 820.60 378.38, 818.00 380.00 C 815.40 381.62, 807.25 387.18, 804.00 390.00 C 800.75 392.82, 791.36 402.21, 788.00 406.00 C 784.64 409.79, 777.33 418.50, 773.00 425.00 C 768.67 431.50, 753.20 456.47, 748.00 466.00 C 742.80 475.53, 731.83 497.07, 725.00 513.00 C 718.17 528.92, 690.96 598.59, 685.00 613.00 C 679.04 627.41, 672.60 640.69, 670.00 646.00 C 667.40 651.31, 663.06 658.86, 661.00 662.00 C 658.94 665.14, 653.17 672.62, 651.00 675.00 C 648.83 677.38, 643.06 682.59, 641.00 684.00 C 638.94 685.41, 634.17 687.57, 632.00 688.00 C 629.83 688.43, 623.38 688.54, 621.00 688.00 C 618.62 687.46, 613.25 685.92, 610.00 683.00 C 606.75 680.08, 595.12 667.50, 591.00 661.00 C 586.88 654.50, 577.09 634.92, 572.00 623.00 C 566.91 611.08, 549.96 565.41, 544.00 551.00 C 538.04 536.59, 522.74 501.81, 517.00 490.00 C 511.26 478.19, 496.74 451.21, 491.00 442.00 C 485.26 432.79, 468.44 410.52, 464.00 405.00 C 459.56 399.48, 453.14 393.71, 450.00 391.00 C 446.86 388.29, 438.47 381.95, 435.00 380.00 C 431.53 378.05, 421.57 373.87, 418.00 373.00 C 414.43 372.13, 405.03 371.78, 402.00 372.00 C 398.97 372.22, 392.60 373.92, 390.00 375.00 C 387.40 376.08, 380.82 379.73, 378.00 382.00 C 375.18 384.27, 366.49 393.07, 364.00 396.00 C 361.51 398.93, 357.17 405.32, 355.00 409.00 Z" fill="#2d7cbd" />
    <rect x="246" y="765" width="760" height="38" fill="#faca1e" stroke="none" />
    <path d="M 631.5 752.0 C 628.9 750.3 625.9 753.3 627.6 756.0 L 645.5 782.0 L 611.0 782.0 L 611.0 786.0 L 645.5 786.0 L 627.6 812.0 C 625.9 814.7 628.9 817.7 631.5 816.0 L 689.6 787.0 C 692.9 785.3 692.9 782.7 689.6 781.0 Z" fill="#faca1e" stroke="#faca1e" stroke-width="8" stroke-linejoin="round" />
    <circle cx="626.4" cy="638.0" r="28.0" fill="#faca1e" stroke="none" />
  </g>
</svg>
